<svg xmlns="http://www.w3.org/2000/svg" viewBox="0 0 687.87 770.32"><defs><style>.cls-1{fill:#83367b;}</style></defs><g id="Calque_2" data-name="Calque 2"><g id="Calque_1-2" data-name="Calque 1"><path class="cls-1" d="M518.66,92.66c0,11.66,0,23.32,0,35,.05,8.42-3.46,14.77-10.72,19q-31.12,18-62.31,35.83a19.1,19.1,0,0,1-20,0q-31.41-18-62.72-36.1c-6.91-4-10.28-10.17-10.28-18.18q0-35.49,0-71c0-8,3.35-14.17,10.27-18.18Q394.47,20.74,426.1,2.66a18.44,18.44,0,0,1,19.09,0q31.89,18.17,63.6,36.6c6.7,3.91,9.87,10.13,9.87,17.92Q518.67,74.91,518.66,92.66Z"/><path class="cls-1" d="M426.67,245.82c0,11.66,0,23.32,0,35,0,8.19-3.31,14.49-10.43,18.6q-31.32,18.11-62.73,36.09a18.68,18.68,0,0,1-19.52.08q-31.65-18-63.17-36.33c-6.72-3.9-10.13-10-10.14-17.76q-.07-35.75,0-71.47c0-8,3.51-14.11,10.42-18.1q31.32-18.12,62.73-36.1c6.6-3.76,13.41-3.61,20,.15q31.19,17.85,62.3,35.84c7.11,4.1,10.57,10.33,10.55,18.53Q426.64,228.08,426.67,245.82Z"/><path class="cls-1" d="M169.67,399.67c0-11.66.06-23.31,0-35-.06-8.41,3.41-14.77,10.67-19q30.62-17.81,61.29-35.54c7.11-4.12,14.23-4,21.32.09l60.86,35.29c7.44,4.32,10.93,10.76,10.9,19.37q-.12,35,0,69.94c0,8.44-3.66,14.69-10.87,18.88Q293.39,471.41,263,489c-7.29,4.22-14.5,4.11-21.76-.11q-30.19-17.56-60.44-35c-7.61-4.4-11.24-10.92-11.12-19.75C169.78,422.65,169.67,411.16,169.67,399.67Z"/><path class="cls-1" d="M518.67,400.82c0,11.66,0,23.32,0,35q.08,12.65-10.82,18.91-30.71,17.7-61.44,35.36c-7.3,4.21-14.53,4.06-21.79-.13q-30.25-17.47-60.56-34.87c-7.83-4.48-11.5-11.05-11.45-20.09q.19-34.49,0-69c0-8.84,3.64-15.3,11.28-19.68q30.54-17.5,61-35.11c7.3-4.21,14.53-4.05,21.79.15q30.26,17.46,60.57,34.86c7.82,4.48,11.57,11,11.43,20.09C518.53,377.83,518.67,389.32,518.67,400.82Zm-146-.64c0,10.83.11,21.65-.08,32.48,0,3,.78,4.77,3.48,6.3q28.23,16,56.25,32.33a5.78,5.78,0,0,0,6.72,0q28-16.32,56.25-32.32c2.73-1.54,3.46-3.33,3.45-6.32q-.19-32,0-64c0-3-.77-4.78-3.47-6.31Q467,346.37,439,330a5.78,5.78,0,0,0-6.73,0q-28,16.32-56.25,32.32c-2.72,1.54-3.5,3.32-3.45,6.32C372.78,379.19,372.67,389.69,372.67,400.18Z"/><path class="cls-1" d="M442.67,245.67c0-11.66.05-23.33,0-35,0-8.63,3.66-15,11.11-19.25q30.53-17.53,61-35.11c7.29-4.2,14.52-4.2,21.8,0q30.48,17.58,61,35.11c7.44,4.28,11.15,10.6,11.13,19.24-.07,23.49,0,47,0,70.48,0,8-3.35,14.17-10.28,18.18q-31.32,18.12-62.73,36.11a19,19,0,0,1-20,0q-31.41-18-62.73-36.1c-6.94-4-10.28-10.19-10.29-18.18Q442.66,263.4,442.67,245.67Zm146,0c0-10.66-.12-21.32.07-32,0-3-.75-4.78-3.46-6.32q-28.23-16-56.25-32.31a5.78,5.78,0,0,0-6.73,0q-28,16.32-56.25,32.32c-2.71,1.53-3.47,3.31-3.45,6.31q.19,32,0,64c0,3,.75,4.76,3.46,6.3q28.23,16,56.25,32.32a5.75,5.75,0,0,0,6.71,0q28-16.33,56.25-32.32c2.72-1.54,3.52-3.3,3.47-6.3C588.55,267,588.67,256.32,588.67,245.66Z"/><path class="cls-1" d="M335.67,92.71c0,11.67-.05,23.33,0,35,0,8.41-3.45,14.74-10.75,19Q294,164.44,263.05,182.24c-6.95,4-13.93,3.93-20.88-.06q-30.72-17.66-61.45-35.32c-7.66-4.4-11.14-11-11.1-19.77q.19-34.49,0-69c0-8.84,3.53-15.33,11.18-19.72q30.52-17.51,61-35.1c7.29-4.2,14.52-4.14,21.79,0q30.5,17.58,61,35.11c7.45,4.28,11.14,10.64,11.07,19.28C335.6,69.39,335.67,81.05,335.67,92.71Zm-146-.08c0,10.66.11,21.32-.08,32-.05,3,.71,4.77,3.44,6.32q28.23,16,56.25,32.31c2.45,1.43,4.22,1.49,6.71,0q28-16.34,56.25-32.34c2.39-1.36,3.53-2.79,3.51-5.77q-.22-32.48,0-65c0-2.92-1-4.42-3.44-5.81q-28.2-16-56.25-32.33c-2.45-1.43-4.22-1.49-6.72,0q-28,16.32-56.25,32.31c-2.71,1.53-3.54,3.28-3.49,6.3C189.78,71.31,189.67,82,189.67,92.63Z"/><path class="cls-1" d="M243.66,245.92q0,17.49,0,35c0,8.19-3.43,14.46-10.53,18.56q-31.11,18-62.29,35.86a19.37,19.37,0,0,1-20.42,0q-31.19-17.88-62.3-35.86c-7.11-4.11-10.48-10.38-10.47-18.58q0-35.24,0-70.47c0-8.21,3.4-14.46,10.5-18.56q31.11-18,62.29-35.85a19.4,19.4,0,0,1,20.44,0q31.17,17.88,62.29,35.86c7.11,4.11,10.5,10.39,10.49,18.58Q243.64,228.19,243.66,245.92Zm-146-.59c0,11,.1,22-.08,33,0,2.72.88,4.12,3.2,5.44q28.41,16.14,56.67,32.58c2.26,1.31,3.87,1.49,6.26.09Q192,300,220.39,283.85c2.54-1.44,3.32-3.08,3.31-5.89q-.16-32.47,0-64.95a5.41,5.41,0,0,0-3.19-5.46Q192.11,191.4,163.85,175c-2.28-1.33-3.9-1.46-6.27-.08q-28.25,16.47-56.68,32.57c-2.53,1.44-3.34,3.08-3.3,5.9C97.76,224,97.67,234.67,97.67,245.33Z"/><path class="cls-1" d="M234.24,706.73V673.09c-1.5-.13-2.8-.27-4.11-.33-4.64-.19-5.14-3.36-5.08-7,.06-3.78,1.53-5.84,5.73-5.71,7,.2,14,.21,21,0,4.32-.13,6.51,1.24,6.59,5.89s-1.47,7-6.28,6.83c-.82,0-1.63.1-2.83.17v83.75c1,.84,2.25.57,3.37.56,4.77,0,5.72,2.81,5.72,6.88,0,4.27-2,6.06-6.09,6-7,0-14-.07-21,0-4.45.06-6.28-2.06-6.25-6.42s1.59-6.67,6.14-6.52a22.92,22.92,0,0,0,3.09-.3V720.14H182.6v36.41c.91,1.07,2.16.7,3.26.72,4.68.05,5.76,2.82,5.74,6.92,0,4.31-2.08,6-6.14,6-6.83,0-13.66-.09-20.48,0-4.52.08-6.64-1.58-6.62-6.46s1.91-6.78,6.55-6.48a23.08,23.08,0,0,0,2.35-.13V673.32c-1-.93-2.37-.5-3.62-.53-5-.11-5.23-3.38-5.23-7.23,0-4.16,1.92-5.56,5.86-5.47,6.83.16,13.67.18,20.49,0,4.14-.12,6.79.84,6.82,5.64,0,5.34-1,6.61-6.54,7.07-.66.06-1.31.16-2.36.28v33.66Z"/><path class="cls-1" d="M158.12,582.55c8.47,9.64,13.91,20.76,20.49,31.13,2,3.2,4.07,4.76,7.93,4.34,7.74-.83,7.37,3.42,6.83,9.24-.22,2.34-2.23,3.1-4.46,3.09-4.5,0-9-.1-13.49,0-3,.09-4.4-1.89-5.74-4.06-5.34-8.63-11.43-16.89-15.85-26-6.23-12.8-15.91-17.05-29.72-14.46v31.59c.35.54,1.21.44,2,.48,6.19.26,8.62,3.93,6.55,9.86-.84,2.42-2.83,2.53-4.87,2.53-7.5,0-15-.1-22.48,0-4.36.09-5.36-2.29-5.32-6,0-3.48.41-6.46,4.93-6.43,1.3,0,2.6-.14,4.2-.24V533.79c-1.13-1-2.53-.56-3.79-.58-3.78-.05-5.31-2-5.35-5.66s.27-7.16,4.84-7.12c17,.14,34-1.66,50.84,1.37,17.71,3.18,25,11.16,26.43,27.43,1.28,14.55-6.72,26.58-21.49,32.34Zm-34.43-9.74c7.26,0,13.74.18,20.2-.08a41.87,41.87,0,0,0,9.79-1.65c9.28-2.66,14.53-10.87,13.78-21.1-.67-9.1-5.61-14.06-15.64-15.85-9.23-1.65-18.47-.68-28.13-1v39.63Z"/><path class="cls-1" d="M417.55,580c0,12.33,0,23.82,0,35.31,0,.65.14,1.3.3,2.62h44.78c0-4,.07-7.61,0-11.21s1.42-5.57,5.27-5.67,7.33.25,7.48,5.08c.19,6.15.23,12.32-.08,18.47-.18,3.59-2.45,5.71-6.28,5.71q-35.24,0-70.46,0c-4.16,0-4.83-2.51-4.81-6s.31-6.44,4.85-6.46c1.29,0,2.67.37,4.16-.68V533.83c-1.09-1-2.32-.63-3.43-.62-4.4,0-5.59-2.31-5.63-6.37s1.31-6.51,5.55-6.52q34.23-.06,68.46,0c4.37,0,6.71,2.66,6.81,7,.11,4.66.05,9.33,0,14,0,4.33-2.46,5.56-6.51,5.54s-6.35-1.39-6.23-5.73c.06-2.47,0-4.94,0-7.68H417.87v33.67c10.73,0,21.34,0,32,0,5.34,0,6.76,1.65,6.74,6.86,0,4.6-2.5,6.07-6.67,6-9.33-.06-18.66,0-28,0Z"/><path class="cls-1" d="M302.86,573.64c.21,13-2,24.69-8.22,35.3-10.68,18.1-27.25,24.77-47.4,22.9s-33.05-13.14-38.9-32.2c-5.32-17.39-4.91-34.85,2.15-51.75,8.77-21,27.76-31.29,51.78-28.63,20.26,2.23,35.66,17.62,39.41,39.29A74.29,74.29,0,0,1,302.86,573.64Zm-14.61-.8c-.35-4.15-.39-10.15-1.85-16-3.74-14.91-13.55-23.82-27.47-24.94-16.85-1.35-28.83,5.25-34.77,20.06s-6,29.91-1.54,45c3.8,12.87,12.36,20.71,26,22.1,14.73,1.5,26.54-3.35,33.82-16.91C287,593.6,288,584.18,288.25,572.84Z"/><path class="cls-1" d="M469.28,706.54c11,0,21.35,0,31.67,0,4.2,0,7.16,1.17,7.33,6s-1.56,6.75-6.36,6.77c-10.8,0-21.59,0-33.06,0v37.54H514.1c0-3.51,0-7.1,0-10.69,0-5.37,3.62-5.29,7.57-5.3s5.23,2,5.2,5.59c0,5.67,0,11.33,0,17,0,4.27-2.45,6.6-6.53,6.62-23.15.11-46.3,0-69.45.06-4.4,0-5.5-2.44-5.49-6.48s1.15-6.46,5.56-6.4c1,0,2,0,3.34,0v-84c-.64-.8-1.72-.57-2.64-.52-5.24.26-6.29-2.59-6.27-7.23,0-5.15,2.89-5.5,6.81-5.48,22,.07,44,0,66,0,6,0,7.66,1.68,7.72,7.7,0,4.5-.06,9,0,13.49s-2.58,5.06-6.21,5.08-6.26-.84-6.18-5.16c0-2.62,0-5.25,0-8.17h-44.2Z"/><path class="cls-1" d="M24.12,587v30.61a17.92,17.92,0,0,0,3.07.29c4.65-.39,6.15,2,6.15,6.3s-1.7,6.34-6.27,6.18c-6.83-.25-13.67-.23-20.5,0-4.36.14-6.53-1.35-6.57-5.93s1.53-7,6.43-6.55a14.66,14.66,0,0,0,2.72-.26v-83.9c-1.18-1-2.57-.56-3.84-.57-4.26-.05-5.2-2.72-5.28-6.3s1.06-6.58,5.11-6.5c17.29.31,34.69-1.77,51.84,1.73,14.78,3,23.53,12.36,24.7,25.64,1.49,16.93-5,28.76-19.13,34.9-9.73,4.22-20,4.52-30.4,4.37C29.54,587,26.92,587,24.12,587Zm.13-53.88v41c10-.38,19.7,1,29.16-1.88,10-3.07,14.2-9.58,13.62-20.95-.5-9.76-5.47-15.19-15.56-17.18C42.54,532.41,33.55,533.52,24.25,533.16Z"/><path class="cls-1" d="M350.79,673c.42,1.44.64,2.41,1,3.33l26.65,72.88c9.46-25.87,18.53-50.7,27.52-75.31-1.23-1.41-2.47-1.06-3.59-1.12-5.56-.26-4.87-4.27-4.89-8s2.18-4.74,5.5-4.7c7,.08,14,.13,21,0,4.16-.08,5.57,2,5.64,5.81s-.75,7.06-5.21,6.73c-4-.3-4.94,1.89-6.06,4.94-10.53,28.7-21.28,57.32-31.74,86-1.74,4.79-4.27,7-9.49,6.68-4.12-.22-6.22-1.83-7.63-5.68-10.46-28.55-21.14-57-31.62-85.55-1.38-3.75-2.38-6.68-7.54-6.62-4.94.06-3.66-4.52-3.81-7.67-.17-3.45,1.73-4.69,5-4.66,7.33.06,14.66.13,22,0,4-.09,6.25,1.1,6.33,5.59s-.92,7.25-5.94,7.11C353,672.77,352.2,672.89,350.79,673Z"/><path class="cls-1" d="M565.33,541.5c-6.19-8.55-19-12.09-31.34-8.78-14.57,3.89-19.87,15.14-22.05,28.49a78.53,78.53,0,0,0,1.89,35.6c5.37,17.84,20.78,26.29,38.6,21.38,7.33-2,12.49-6.67,16.27-13.1,3-5,6.26-6.39,9.94-4.27s4,5.77,1.15,11c-8.35,15.15-25.36,22.87-43.91,19.92-20.12-3.2-33.23-16.17-37.76-38.51-3-15-2.83-30.16,2.38-44.84,10.33-29.11,47.61-39.45,71.61-19.92,6,4.86,9.65,11,9.55,18.91-.06,4.63-1.6,8.58-6.44,10.21-4.18,1.4-8.05.68-10.79-2.91-3-3.95-2.45-8.06.32-12A8.78,8.78,0,0,0,565.33,541.5Z"/><path class="cls-1" d="M637.16,533.4h-23c0,3.64.07,7.08,0,10.52-.13,4.92-3.46,5.23-7.32,5.17s-5.37-1.92-5.33-5.57c.06-5.17,0-10.34,0-15.5.07-5.66,2.09-7.69,8-7.72,16-.06,32,0,48,0,7.5,0,15-.07,22.49,0,5.83.07,7.85,2.12,7.92,7.8,0,5.16,0,10.33,0,15.49,0,3.35-1.21,5.44-4.91,5.45s-7.41.46-7.63-4.73c-.15-3.48,0-7,0-10.79H652.53c-.83,3.6-1.12,76.17-.32,83.64.55.81,1.41.75,2.23.79,6,.3,7.57,2.19,6.83,8-.43,3.34-2.31,4.43-5.47,4.39-7.33-.09-14.66-.15-22,0-4.24.1-5.5-1.87-5.4-5.81.08-3.63.13-6.86,5.07-6.64a34.61,34.61,0,0,0,3.68-.25Z"/><path class="cls-1" d="M352.47,533.18c-4.15,0-7.8,0-11.45,0s-5-2-5-5.43,0-7.2,4.63-7.3q15.5-.33,31,0c4.34.09,4.64,3.61,4.61,6.91s-1.19,5.9-5.19,5.82c-1.15,0-2.31,0-3.35,0-1.42,1.85-.8,3.75-.81,5.49q-.08,31.49,0,63a41.94,41.94,0,0,1-1,10.4c-4.58,18.07-24.74,26.16-40.4,16.05-7-4.54-10.25-11.22-9.68-19.56.29-4.22,1.94-7.92,6.34-9.26,3.82-1.17,7.75-1,10.6,2.25,3.13,3.61,2.89,7.75.36,11.52-1.5,2.24-.46,3.28,1.07,4.46,4.49,3.47,12.19,2,15.44-2.9a17.28,17.28,0,0,0,2.86-9.45C352.52,581.36,352.47,557.57,352.47,533.18Z"/><path class="cls-1" d="M286.41,757.07v-84a23.69,23.69,0,0,0-3.1-.26c-5.51.28-5.94-3.08-5.93-7.46,0-4.89,2.8-5.28,6.51-5.23,6.65.09,13.32.14,20,0,3.92-.09,6.44.81,6.47,5.41,0,5.59-.89,6.85-6.28,7.28l-2.81.2v83.71c1,.88,2.23.58,3.35.58,4.71,0,5.74,2.72,5.77,6.84,0,4.31-1.94,6.08-6,6.07-6.82,0-13.65,0-20.47,0-4.11,0-6.66-1.07-6.47-6,.22-5.9.64-6.64,6.38-7C284.59,757.23,285.39,757.15,286.41,757.07Z"/></g></g></svg>