<svg xmlns="http://www.w3.org/2000/svg" viewBox="0 0 531.28 493.18"><defs><style>.cls-1{fill:#83367b;}</style></defs><g id="Calque_2" data-name="Calque 2"><g id="Calque_1-2" data-name="Calque 1"><path class="cls-1" d="M275.13,92.25c0-11.5.09-23,0-34.49-.08-8.64,3.56-15,11-19.33Q317,20.63,348,2.87C354.79-1,361.68-.94,368.45,3q31.17,17.9,62.31,35.87c7.1,4.11,10.46,10.42,10.45,18.61,0,23.33-.06,46.66,0,70,0,8.64-3.58,15-11,19.32q-30.72,17.7-61.46,35.35c-7.13,4.1-14.24,4-21.34-.08q-30.51-17.55-61-35.09c-7.62-4.37-11.38-10.81-11.27-19.67C275.24,115.58,275.13,103.91,275.13,92.25Z"/><path class="cls-1" d="M183.09,245.22c0-11.5.07-23,0-34.49-.07-8.64,3.64-15,11.07-19.3q30.72-17.69,61.46-35.33c7.14-4.11,14.25-4,21.34.13q30.51,17.55,61,35.09c7.63,4.38,11.28,10.85,11.23,19.7-.12,23.16-.08,46.32,0,69.48,0,8.41-3.34,14.81-10.64,19q-31.14,18-62.33,35.84c-6.59,3.78-13.37,3.87-20,.1q-31.43-18-62.75-36.1c-7.11-4.12-10.43-10.45-10.41-18.64C183.12,268.88,183.09,257.05,183.09,245.22Z"/><path class="cls-1" d="M257.12,399.65c0,11.49-.12,23,0,34.48.12,8.83-3.52,15.36-11.12,19.76q-30.24,17.5-60.46,35.05c-7.47,4.34-14.77,4.22-22.21-.12q-30-17.47-60-34.8C95.75,449.64,92,443.23,92,434.38q.15-34.72,0-69.46c0-8.62,3.47-15.06,10.9-19.38l60.89-35.3c7.28-4.22,14.51-4.11,21.77.12q30.21,17.56,60.46,35.05c7.64,4.41,11.22,10.95,11.12,19.76C257,376.66,257.12,388.16,257.12,399.65Z"/><path class="cls-1" d="M441.2,400.65c0,11.5-.11,23,0,34.5.12,9.06-3.74,15.55-11.56,20Q399.32,472.5,369.08,490c-7.28,4.2-14.51,4.21-21.8,0q-30.5-17.6-61-35.12c-7.64-4.4-11.2-10.94-11.15-19.76q.15-34.5,0-69c0-9.05,3.76-15.56,11.58-20q30.34-17.33,60.6-34.86c7.28-4.2,14.51-4.2,21.8,0q30.49,17.58,61,35.12c7.63,4.39,11.26,10.92,11.14,19.76C441.09,377.65,441.2,389.15,441.2,400.65Zm-20,.12c0-11-.08-22,.05-33a5,5,0,0,0-2.94-5.08q-28.63-16.29-57.12-32.86c-2.16-1.26-3.68-1.34-5.84-.09q-28.5,16.54-57.14,32.83a5.41,5.41,0,0,0-3.14,5.48q.18,32.49,0,65a5.8,5.8,0,0,0,3.38,5.85q28.21,16,56.27,32.34c2.4,1.4,4.19,1.6,6.72.12q28.24-16.49,56.69-32.61a5.36,5.36,0,0,0,3.13-5.49C421.1,422.43,421.2,411.6,421.2,400.77Z"/><path class="cls-1" d="M258.12,92.63c0,11.66,0,23.33,0,35,0,8.41-3.45,14.75-10.75,19q-30.94,17.8-61.91,35.6c-6.95,4-13.93,3.94-20.88-.05q-30.75-17.65-61.49-35.33C95.45,142.4,92,135.85,92,127q.19-34.5,0-69C92,49.2,95.54,42.69,103.19,38.31q30.54-17.52,61-35.11C171.52-1,178.75-1,186,3.24Q216.32,20.7,246.64,38.1c7.84,4.47,11.64,11,11.52,20C258,69.63,258.12,81.13,258.12,92.63Zm-20,.39c0-11-.09-22,.06-33,0-2.65-.7-4.16-3.09-5.52Q206.65,38.4,178.4,21.93c-2.51-1.47-4.29-1.35-6.73.06q-28,16.32-56.27,32.34A5.78,5.78,0,0,0,112,60.16q.2,32.49,0,65c0,2.65.7,4.15,3.09,5.5q28.44,16.14,56.69,32.6c2.52,1.47,4.28,1.35,6.72-.06q28-16.32,56.27-32.34c2.45-1.39,3.47-2.91,3.42-5.82C238,114.35,238.12,103.68,238.12,93Z"/><path class="cls-1" d="M166.08,245.87q0,17.49,0,35c0,8.2-3.42,14.47-10.52,18.58q-31.14,18-62.32,35.86a19.36,19.36,0,0,1-20.44,0Q41.63,317.41,10.5,299.43C3.38,295.32,0,289.05,0,280.85q0-35.24,0-70.48c0-8.22,3.4-14.48,10.5-18.58q31.13-18,62.32-35.86a19.42,19.42,0,0,1,20.44,0q31.18,17.88,62.32,35.87c7.1,4.11,10.53,10.38,10.51,18.58C166.06,222.21,166.08,234,166.08,245.87ZM146,246c0-11-.09-22,.07-33a5.37,5.37,0,0,0-3.14-5.48q-28.65-16.28-57.13-32.84c-2.24-1.31-3.75-1.06-5.83.15q-28.5,16.54-57.13,32.84A5,5,0,0,0,20,212.76q.13,33,0,66a4.69,4.69,0,0,0,2.71,4.7q28.84,16.43,57.56,33.09c2.17,1.26,3.67,1.14,5.82-.11q28.47-16.57,57.12-32.85a5,5,0,0,0,2.92-5.09C146,267.64,146,256.81,146,246Z"/><path class="cls-1" d="M365.17,245.3c0-11.34.12-22.67,0-34-.12-9,3.59-15.62,11.43-20.1q30.33-17.35,60.59-34.87c7.46-4.31,14.8-4.24,22.25.07q30.25,17.49,60.58,34.88c7.64,4.37,11.33,10.82,11.3,19.66-.1,23.33,0,46.66,0,70,0,8.22-3.47,14.44-10.56,18.54q-30.92,17.86-61.88,35.64c-6.93,4-13.92,4.15-20.88.15q-31.18-17.88-62.32-35.87c-7.11-4.11-10.47-10.41-10.45-18.6C365.2,269,365.17,257.13,365.17,245.3Zm146.06.78c0-10.82-.11-21.65.08-32.48.05-3-.8-4.77-3.49-6.3q-28.24-16-56.28-32.33c-2.49-1.45-4.27-1.39-6.73,0q-28,16.32-56.26,32.34c-2.43,1.38-3.47,2.89-3.45,5.82q.21,32.47,0,65c0,3,1.12,4.4,3.52,5.76q28.2,16.05,56.26,32.36c2.49,1.45,4.26,1.38,6.71,0q28.05-16.34,56.28-32.33c2.74-1.55,3.49-3.33,3.44-6.32C511.12,267.08,511.23,256.58,511.23,246.08Z"/></g></g></svg>