<svg xmlns="http://www.w3.org/2000/svg" viewBox="0 0 1905.36 374"><defs><style>.cls-1{fill:#7e3472;}</style></defs><g id="Calque_2" data-name="Calque 2"><g id="Calque_1-2" data-name="Calque 1"><path class="cls-1" d="M138.82,186.12c0-8.71.06-17.43,0-26.14-.06-6.54,2.62-11.45,8.27-14.7q23.44-13.51,46.92-27a14.7,14.7,0,0,1,15.49,0q23.66,13.53,47.25,27.17c5.39,3.11,8,7.85,8,14.07q0,26.72,0,53.43c0,6.21-2.51,11-7.92,14.1Q233,240.76,209.21,254.41a14.17,14.17,0,0,1-14.8,0q-24-13.69-47.9-27.55c-5.24-3-7.7-7.81-7.69-13.86Q138.84,199.58,138.82,186.12Z"/><path class="cls-1" d="M208.6,70.08c0-8.85,0-17.69,0-26.53,0-6.22,2.55-11,7.94-14.09Q240.29,15.72,264.1,2.09a14.21,14.21,0,0,1,14.81,0q24,13.71,47.89,27.56a14.73,14.73,0,0,1,7.66,13.48q.06,27.11,0,54.19c0,5.91-2.53,10.55-7.62,13.51Q303,124.7,279,138.38a14.24,14.24,0,0,1-14.81,0q-24-13.68-47.9-27.56c-5.23-3-7.68-7.79-7.66-13.86C208.62,88,208.6,79,208.6,70.08Z"/><path class="cls-1" d="M69.8,303.11c0-8.84,0-17.69,0-26.54,0-6.38,2.59-11.2,8.1-14.41q23.25-13.5,46.52-27c5.41-3.13,10.81-3,16.18.13q22.92,13.31,45.87,26.59c5.79,3.34,8.52,8.27,8.49,15q-.12,26.36,0,52.7a15.73,15.73,0,0,1-8.42,14.62q-22.94,13.29-45.87,26.59a15.34,15.34,0,0,1-16.51,0Q101.06,357.41,78,344a15.45,15.45,0,0,1-8.16-14.38C69.84,320.81,69.8,312,69.8,303.11Z"/><path class="cls-1" d="M1532,132.17c-2.63-.21-5-.29-7.37-.61a4.59,4.59,0,0,1-4.22-4.6,38.24,38.24,0,0,1-.12-4.54c.14-4.64,1.39-6.39,6-6.51,10-.26,20-.32,29.92,0,5.45.17,6.42,2.19,6.11,9.8-.17,4.35-2,6-6.83,6.22-1.51.07-3,0-4.79,0V239.8c2.31.2,4.54.39,6.78.56a4.32,4.32,0,0,1,3.35,1.51c2.51,3.41,1.79,7.27,1,10.91-.72,3.2-3.77,3.47-6.44,3.51-8,.1-15.92,0-23.88,0-1.9,0-3.8,0-5.68-.13-3.55-.32-5.51-2.24-5.52-5.92,0-1.26-.06-2.53,0-3.79.21-4.34,1.57-5.81,5.93-6.29,1.86-.2,3.74-.2,5.79-.3V192.22H1465.5v47.59c2.28.19,4.51.34,6.73.59,3,.32,4.42,2,4.61,5,.62,9.67-.54,10.92-10.38,10.92-7.84,0-15.67,0-23.51,0-2.79,0-6,.12-7.24-2.93a14.09,14.09,0,0,1,.09-10.69c.65-1.62,2.35-2.19,4.07-2.33,2.24-.19,4.49-.36,6.91-.55V131.93c-1.87,0-3.72.11-5.55,0-4.64-.34-6.19-2-6.26-6.75,0-1.13,0-2.27,0-3.41,0-3.47,1.6-5.4,5.11-5.79,5.43-.59,10.86-.25,16.29-.25,5.17,0,10.35-.33,15.52.26,3.33.38,5,2.13,4.94,5.49,0,.5,0,1,0,1.52,0,7.88-.92,8.85-8.88,9-.75,0-1.49.07-2.48.12V175.7H1532Z"/><path class="cls-1" d="M618.59,239.59V132.41c-1.86-.9-3.77-.3-5.61-.48-4.48-.46-6-2.07-6.1-6.52,0-1.39-.06-2.79,0-4.17.13-2.89,1.54-4.74,4.5-5.19a21.42,21.42,0,0,1,3.38-.36c17.93.14,35.88-.52,53.79.49a64.28,64.28,0,0,1,22.76,5.22c12.51,5.58,19.08,15.38,20,28.87,1.54,22.18-8.41,36.91-29.47,44.12a12.08,12.08,0,0,0-1.35.67C691.05,205.94,697,219.75,705.4,232a8.37,8.37,0,0,1,1,1.62c2.06,5.23,5.62,7.07,11.4,6.64,7.42-.56,11.2,6.42,7.73,13.23-1.15,2.25-3.35,2.73-5.46,2.78-5.81.16-11.63.13-17.44,0-3.14,0-4.86-2.22-6.38-4.7-7.8-12.68-16.08-25.09-23.35-38.06-6-10.79-14.22-16.25-26.74-14.76a77.13,77.13,0,0,1-8.89.05v41c2.4.18,4.65.29,6.88.54,2.94.33,4.51,2.08,4.7,5,.11,1.64.1,3.28.08,4.92,0,3.67-2,5.81-5.56,5.87-10.23.16-20.47.23-30.69,0-4.28-.1-5.69-2.06-5.77-6.37,0-1.14,0-2.28,0-3.41.1-4.13,1.42-5.48,5.58-6.17C614.44,239.89,616.5,240.51,618.59,239.59Zm18.6-107.73v50.82c9.24-.06,18.28.37,27.33-.24a42.14,42.14,0,0,0,14.66-3.34c9.94-4.5,14.67-14.2,13.42-27.54-.92-9.78-6.4-15.47-17.47-18C662.67,130.67,650,132.48,637.19,131.86Z"/><path class="cls-1" d="M993.65,240.08V132.41c-1.71-.95-3.64-.3-5.48-.47-4.48-.43-6-2-6.11-6.48q0-1.71,0-3.42c.1-4.28,1.21-5.55,5.51-6.12a30.31,30.31,0,0,1,4.15-.24q41,0,81.89,0c9,0,11.11,2.17,11.11,11.24,0,5.43.08,10.87,0,16.3-.1,4.51-1.78,6.05-6.32,6.16-1.14,0-2.28.05-3.41,0-4-.18-5.75-1.74-5.94-5.81-.17-3.65,0-7.32,0-11.3h-56.56v42.64c1.44.8,2.86.46,4.21.46,12.51,0,25,0,37.54,0,5.79,0,7.73,2,7.78,7.68.07,6.44-1.72,8.53-7.71,8.56-12.51.07-25,0-37.54,0-1.35,0-2.76-.32-4.26.48v47.66H1070c0-4.76,0-9.28,0-13.8,0-5.8,1.62-7.2,8-7.19,6.17,0,7.91,1.61,7.94,7.39q0,10.42,0,20.85c0,6.2-3,9.23-9.37,9.25-14.79.05-29.57,0-44.36,0q-20.85,0-41.7,0c-7.7,0-11.41-6-8.08-13.17,1.21-2.57,3.7-2.85,6.11-3.05C990.19,240,991.81,240.08,993.65,240.08Z"/><path class="cls-1" d="M1832,240h57.42V226.83c0-2.8-.2-6,2.87-7.23a13.31,13.31,0,0,1,10.69.2c1.84.88,2.39,2.85,2.39,4.86,0,8.09,0,16.18,0,24.27,0,3.46-2.1,5.54-5.13,6.78a13.45,13.45,0,0,1-5.24.62h-84.56c-8.09,0-11.51-5.16-8.53-12.77a4.78,4.78,0,0,1,4.32-3.16c2.24-.23,4.49-.39,6.93-.59V131.92c-1.87,0-3.72.12-5.55,0-4.41-.35-6-2.13-6.14-6.5,0-1.39-.06-2.79,0-4.17.16-2.89,1.59-4.77,4.55-5.16a40.35,40.35,0,0,1,5.27-.37q41,0,81.91,0c8.77,0,11.18,2.44,11.18,11.3,0,5.18.09,10.37,0,15.55-.13,5.7-2,7-9.18,6.86-5-.11-6.59-1.77-6.62-7,0-3.27,0-6.55,0-10.11h-56.63v42.7c1.18.87,2.61.42,3.94.42,12.64,0,25.28,0,37.92,0,5.62,0,7.76,2.17,7.85,7.8.09,6-1.94,8.39-7.62,8.43-13.9.1-27.8,0-42,0Z"/><path class="cls-1" d="M741,188.85c-.17-15.47,2.22-29.3,8.76-42.19,12.51-24.65,36-35.57,63-32.37,28.73,3.39,47.49,22.85,51.87,52.45,2.28,15.43,1.87,30.74-2.45,45.76-8.72,30.36-32.15,46.82-64.49,45.57-27.52-1.07-48.21-19.24-54.39-47.79-.56-2.59-1.08-5.19-1.43-7.82A75.26,75.26,0,0,1,741,188.85Zm106.22-6.26a76.81,76.81,0,0,0-2.35-20.12c-3-12.07-8.71-22.36-20.33-28.24-23.15-11.71-50.73-1.51-59.82,22.72-7.19,19.16-7,38.85-1,58.35a36.85,36.85,0,0,0,14.61,20.16c21.45,14.63,52,5.91,62.76-18C845.87,206.92,847.24,195.7,847.21,182.59Z"/><path class="cls-1" d="M509.78,200.86V239.8c2.54.23,4.92.31,7.25.67a4.53,4.53,0,0,1,4.14,4.65c0,.12,0,.25,0,.38.64,9.47-.63,10.83-10.13,10.83-8,0-15.92,0-23.89,0-2.79,0-6,.08-7.15-3a14.23,14.23,0,0,1,.19-10.69,4.18,4.18,0,0,1,3.76-2.19l6.73-.56V132.33c-2-.89-4.16-.14-6.25-.52-3.34-.61-5.21-2.36-5.12-5.89,0-1.27,0-2.53,0-3.79.08-4.26,1.25-5.6,5.47-6.2a20.25,20.25,0,0,1,3-.24c16.43.14,32.85-.35,49.28.3,8.91.35,17.6,1.76,25.72,5.57,12.69,6,19.33,16.19,20.44,30,1.16,14.46-2,27.39-13.81,37-7.87,6.42-17.13,9.44-27,11-9.31,1.41-18.68.63-28,.87C512.94,200.49,511.41,200.13,509.78,200.86Zm-.07-16.36c10.59-.19,20.8.56,30.95-.94,15.5-2.29,22.84-9.11,24.06-23.45s-4.54-23.61-18.65-26.68c-11.87-2.58-23.87-1.19-35.82-1.35-.18,0-.37.33-.54.5Z"/><path class="cls-1" d="M334.48,304c0,8.72-.08,17.44,0,26.16.08,6.55-2.61,11.44-8.25,14.69Q303,358.28,279.66,371.66a15.22,15.22,0,0,1-16.18,0l-46.59-26.81c-5.65-3.25-8.34-8.13-8.31-14.67q.09-26.34,0-52.68c0-6.71,2.79-11.59,8.58-14.9q23-13.19,45.92-26.46a15.75,15.75,0,0,1,16.87,0q22.94,13.26,45.92,26.44c5.93,3.4,8.76,8.38,8.64,15.25C334.36,286.56,334.48,295.28,334.48,304Zm-15.15,0c0-8.09-.09-16.18.06-24.26,0-2.42-.6-3.84-2.8-5.08q-21.27-12-42.35-24.34a4.65,4.65,0,0,0-5.44,0q-21.09,12.31-42.34,24.35a4.65,4.65,0,0,0-2.78,4.7q.18,24.45,0,48.9a4.41,4.41,0,0,0,2.47,4.49q21.59,12.22,43,24.71a4.07,4.07,0,0,0,4.77,0q21.44-12.48,43-24.71c2-1.11,2.46-2.42,2.43-4.51C319.27,320.18,319.33,312.09,319.33,304Z"/><path class="cls-1" d="M402.74,186.4c0,8.84,0,17.68,0,26.53a15.39,15.39,0,0,1-8.22,14.32Q371.24,240.66,348,254.07a15.2,15.2,0,0,1-16.17.06q-23.46-13.51-46.91-27c-5.39-3.11-8-7.82-8-14.05q0-26.72,0-53.44a15.45,15.45,0,0,1,8.21-14.33l46.59-26.81c5.53-3.2,11-3.07,16.52.1q23.11,13.35,46.25,26.64c5.64,3.25,8.4,8.09,8.34,14.65C402.67,168.71,402.74,177.55,402.74,186.4ZM292,186.28c0,8.09.09,16.18-.05,24.26a4.62,4.62,0,0,0,2.63,4.78q21.42,12.12,42.68,24.52a4.37,4.37,0,0,0,5.09,0Q363.6,227.45,385,215.3a4.38,4.38,0,0,0,2.64-4.39q-.16-24.63,0-49.28a4.38,4.38,0,0,0-2.64-4.39q-21.39-12.18-42.66-24.54a4.4,4.4,0,0,0-5.11,0Q316,145.09,294.57,157.22c-2.06,1.17-2.66,2.52-2.62,4.8C292.09,170.11,292,178.19,292,186.28Z"/><path class="cls-1" d="M69.8,70.17c0-8.84.06-17.69,0-26.53-.05-6.4,2.65-11.18,8.16-14.35q23.44-13.53,46.93-27a15,15,0,0,1,15.84.05q23.46,13.49,46.91,27c5.53,3.19,8.1,8,8.07,14.41q-.09,26.54,0,53.06c0,6.38-2.63,11.18-8.16,14.36q-23.46,13.5-46.93,27a14.94,14.94,0,0,1-15.83-.06q-23.29-13.4-46.6-26.79c-5.81-3.33-8.49-8.3-8.4-15C69.9,87.61,69.8,78.89,69.8,70.17Zm110.74.15c0-8.34-.06-16.68,0-25a3.81,3.81,0,0,0-2.23-3.86Q156.46,29,134.7,16.34a3.28,3.28,0,0,0-3.78-.09Q109,29,87,41.55a3.55,3.55,0,0,0-2,3.58q.08,25,0,50A3.82,3.82,0,0,0,87.14,99q21.74,12.35,43.32,24.93c1.85,1.08,3.06.85,4.75-.13q21.45-12.45,43-24.71A4.06,4.06,0,0,0,180.59,95C180.46,86.75,180.54,78.53,180.54,70.32Z"/><path class="cls-1" d="M0,186c0-8.71.07-17.43,0-26.15-.07-6.57,2.74-11.38,8.37-14.63Q31.66,131.79,55,118.4c5.4-3.1,10.79-3,16.18.1q23.11,13.32,46.26,26.61c5.79,3.32,8.55,8.24,8.52,14.94q-.11,26.34,0,52.67c0,6.54-2.73,11.39-8.39,14.63l-46.59,26.8c-5.41,3.11-10.78,3-16.17-.1Q31.65,240.71,8.51,227.43C2.72,224.11-.08,219.21,0,212.5.11,203.66,0,194.81,0,186Zm110.71.62c0-8.21-.1-16.43.06-24.63a4.63,4.63,0,0,0-2.68-4.77q-21.41-12.13-42.67-24.52a4.37,4.37,0,0,0-5.09.07Q39.09,145.1,17.69,157.26a4.42,4.42,0,0,0-2.57,4.44q.15,24.63,0,49.27a4.07,4.07,0,0,0,2.35,4.17q21.57,12.24,43,24.73a4.35,4.35,0,0,0,5.09-.06q21.27-12.37,42.67-24.53a4.34,4.34,0,0,0,2.57-4.43C110.66,202.77,110.74,194.68,110.74,186.59Z"/><path class="cls-1" d="M1680.09,131.94l35.81,98.11,35.61-97.51c-1.94-1-3.72-.43-5.41-.61-4.31-.47-5.76-2-5.91-6.32,0-1.39,0-2.78,0-4.17.08-3.26,1.59-5.29,5-5.45a276.9,276.9,0,0,1,31,.05c3.17.2,4.71,2.13,4.63,5.31,0,.76,0,1.52,0,2.28,0,7-1.26,8.42-8.4,8.23-2.88-.08-3.81,1.09-4.71,3.52q-21,57.12-42.28,114.17c-2.38,6.42-11.13,9.33-17.14,5.74-1.88-1.12-2.57-3-3.28-4.93-14.09-38.05-28.25-76.09-42.21-114.19-1.2-3.28-2.61-4.51-6.14-4.33-5.29.27-7-1.6-7.19-6.44-.23-7.72.8-9.49,6.69-9.64,9.47-.23,19-.21,28.42,0,6.31.12,7.36,1.74,7.18,9.56-.11,5-1.76,6.52-7.48,6.65C1683.18,132,1682.05,131.94,1680.09,131.94Z"/><path class="cls-1" d="M1201.54,142.63c-6.19-8.89-15.18-11.76-25-12.67-21.22-2-36.62,8.77-41.94,29.45-4.69,18.21-4.71,36.56.82,54.59,7.55,24.59,32.92,35.51,55.42,24.27,7.07-3.54,11.9-9.23,15.49-16.09,1.76-3.37,4.26-5.26,8.18-4.8,6.65.78,9.26,6.27,5.76,13.1-5.93,11.54-14.67,20.4-27.21,24.38-29.56,9.38-63.23.35-75.07-36.72-7.84-24.56-7.67-49.35,3.09-73.17,8.72-19.3,24.52-29.27,45.46-31,14.49-1.17,28.24,1.41,40.34,9.93,9.26,6.51,15.27,15,14.86,26.93-.25,6.93-3.94,11.54-10.24,12.65-4.88.86-9-.57-12-4.63-2.65-3.59-2.67-9.32-.18-13.25C1199.92,144.68,1200.66,143.81,1201.54,142.63Z"/><path class="cls-1" d="M1341.56,132.13H1311.7V239.76c2.35.21,4.68.38,7,.63,3,.32,4.41,2.22,4.64,5.07.12,1.63,0,3.28,0,4.92,0,3.48-1.86,5.68-5.24,5.73q-15.72.25-31.44,0c-3.39-.06-5.2-2.27-5.06-5.81,0-.89,0-1.77,0-2.66,0-5.91,1.37-7.32,7.29-7.56,1.25,0,2.51,0,4,0V132.19h-29.72c0,4.25,0,8.38,0,12.51-.07,6-1.85,7.57-8.2,7.52s-7.81-1.53-7.84-7.45q-.06-10,0-20.09c0-5.92,2.82-9,8.8-9q46.24-.12,92.49,0c6.09,0,9,3.16,9.11,9.2.08,6.7.11,13.4,0,20.09-.1,5.84-2,7.32-8.51,7.22-5.91-.09-7.48-1.61-7.52-7.38C1341.53,140.7,1341.56,136.56,1341.56,132.13Z"/><path class="cls-1" d="M902.59,236.27c5.18,7.64,16.74,7.95,22.22.79a21.85,21.85,0,0,0,4.32-13.48c.1-30.07.06-60.14,0-90.21a7.91,7.91,0,0,0-.34-1.43c-4.37,0-8.76.05-13.14,0-5.78-.07-7.19-1.5-7.21-7.12,0-1.14,0-2.28,0-3.41-.14-3.43,1.58-5.15,4.91-5.44,1-.09,2-.27,3-.27,11.5,0,23-.06,34.5,0,7.66,0,11.47,6.87,7.65,13.59-1.23,2.15-3.4,2.42-5.55,2.65-1.73.19-3.51-.33-5.55.51v4c0,28.56,0,57.11,0,85.67,0,11.51-3.72,21.62-12.77,29.18-12.42,10.36-33.9,9.18-45.11-2.47-6.2-6.44-8.35-14.26-6.78-23,1-5.63,4.29-8.89,9.58-9.87s10.3.93,12.66,4.79c2.49,4.06,2,9.77-1.34,14.18C903.36,235.29,903,235.69,902.59,236.27Z"/><path class="cls-1" d="M1598.47,239.85V132.11c-2.3-.11-4.42-.09-6.52-.33-3.37-.4-5.24-2.27-5.18-5.8,0-1,0-2,0-3,0-5.3,1.24-7,6.53-7.13,9.71-.25,19.45-.26,29.16,0,5.42.16,6.56,2.15,6.36,8.87-.16,5.34-1.78,7-7,7.2-1.49,0-3,0-4.68,0V239.81c2.35.19,4.58.35,6.8.56,3,.28,4.54,2,4.77,4.92.13,1.63.12,3.28.11,4.91,0,3.86-2.14,6-5.84,6-10.1.13-20.21.2-30.3,0-4.45-.11-5.82-2.05-5.88-6.65q0-1.51,0-3c.09-4.21,1.34-5.7,5.45-6.23C1594.22,240,1596.23,240,1598.47,239.85Z"/></g></g></svg>